# xmcd CD database file
#
# Track frame offsets:
#	150
#	15234
#	20692
#	33430
#	54378
#	74246
#	91762
#	110949
#	132110
#	156526
#	169976
#	182689
#	196877
#	211725
#	235007
#	255778
#	278472
#	315520
#	338517
#
# Disc length: 4754 seconds
#
# Revision: 2
# Processed by: cddbd v1.5.2PL0 Copyright (c) Steve Scherf et al.
# Submitted via: CDex 1.51
#
DISCID=fb129013
DTITLE=Martin Weller - live auf Schloss Wartenstein
DYEAR=2004
DGENRE=Blues
TTITLE0=Beijabooch-Blues
TTITLE1=Maddin sucht den Supergeiger
TTITLE2=World Rabbit Championship
TTITLE3=Franz-Otto Klein
TTITLE4=Geh net weg
TTITLE5=Beim Zahnarzt
TTITLE6=Waidmanns Heil
TTITLE7=Die Katz die ess seregg komm
TTITLE8=Schennahannes
TTITLE9=Schennahannes-Mania
TTITLE10=Dau onn eesch
TTITLE11=Honsregger Platt
TTITLE12=Wendam‰rche
TTITLE13=E langer W‰‰sch
TTITLE14=Paprika
TTITLE15=Grieschischer Ween
TTITLE16=Hochwald Cowboy
TTITLE17=Schlaachtfest
TTITLE18=Hierbstwald
EXTD=YEAR: 2004
EXTT0=
EXTT1=
EXTT2=
EXTT3=
EXTT4=
EXTT5=
EXTT6=
EXTT7=
EXTT8=
EXTT9=
EXTT10=
EXTT11=
EXTT12=
EXTT13=
EXTT14=
EXTT15=
EXTT16=
EXTT17=
EXTT18=
PLAYORDER=
